<svg xmlns="http://www.w3.org/2000/svg" id="Layer_2" viewBox="0 0 350.92 94.05"><defs><style>.cls-1{fill:#faad32;}.cls-2{fill:#174358;}</style></defs><g id="Layer_1-2"><g><path class="cls-2" d="M0,62.29l2.99-6.63c3.21,2.34,7.99,3.96,12.55,3.96,5.21,0,7.33-1.74,7.33-4.07,0-7.12-22.11-2.23-22.11-16.35,0-6.46,5.21-11.84,16.03-11.84,4.78,0,9.67,1.14,13.2,3.37l-2.72,6.68c-3.53-2.01-7.17-2.99-10.54-2.99-5.21,0-7.22,1.96-7.22,4.35,0,7.01,22.11,2.17,22.11,16.13,0,6.36-5.27,11.79-16.13,11.79-6.03,0-12.11-1.79-15.48-4.4Z"></path><path class="cls-2" d="M72.52,28.01v38.03h-8.8v-15.59h-17.27v15.59h-8.8V28.01h8.8v14.99h17.27v-14.99h8.8Z"></path><path class="cls-1" d="M127.4,28.01h17.27c12.44,0,20.97,7.5,20.97,19.01s-8.53,19.01-20.97,19.01h-17.27V28.01Zm16.84,30.8c7.55,0,12.49-4.51,12.49-11.79s-4.94-11.79-12.49-11.79h-8.04v23.58h8.04Z"></path><path class="cls-1" d="M172.26,28.01h8.8v38.03h-8.8V28.01Z"></path><path class="cls-1" d="M215.77,46.43h8.04v15.43c-4.18,3.15-9.94,4.83-15.37,4.83-11.95,0-20.75-8.2-20.75-19.67s8.8-19.66,20.91-19.66c6.68,0,12.22,2.28,15.92,6.57l-5.65,5.21c-2.77-2.93-5.98-4.29-9.83-4.29-7.39,0-12.44,4.94-12.44,12.17s5.05,12.17,12.33,12.17c2.39,0,4.62-.43,6.84-1.63v-11.14Z"></path><path class="cls-1" d="M231.96,28.01h8.8v38.03h-8.8V28.01Z"></path><path class="cls-1" d="M257.65,35.18h-12.17v-7.17h33.14v7.17h-12.17v30.85h-8.8v-30.85Z"></path><path class="cls-1" d="M306.48,57.89h-17.65l-3.37,8.15h-9.02l16.95-38.03h8.69l17,38.03h-9.23l-3.37-8.15Zm-2.77-6.68l-6.03-14.56-6.03,14.56h12.06Z"></path><path class="cls-1" d="M323.05,28.01h8.8v30.86h19.07v7.17h-27.87V28.01Z"></path></g><g><circle class="cls-2" cx="99.29" cy="47.35" r="11.39"></circle><circle class="cls-2" cx="99.29" cy="82.66" r="11.39"></circle><circle class="cls-2" cx="99.29" cy="11.39" r="11.39"></circle></g></g></svg>